<svg xmlns="http://www.w3.org/2000/svg" xmlns:xlink="http://www.w3.org/1999/xlink" version="1" width="300" height="264.975"><defs><linearGradient id="d"><stop offset="0" stop-color="#fff" stop-opacity=".918"/><stop offset="1" stop-color="#fff" stop-opacity="0"/></linearGradient><linearGradient id="c"><stop offset="0" stop-color="#fff" stop-opacity=".741"/><stop offset="1" stop-color="#fff" stop-opacity="0"/></linearGradient><linearGradient id="a"><stop offset="0" stop-color="#001e87"/><stop offset="1" stop-color="#85aee8"/></linearGradient><linearGradient id="b"><stop offset="0" stop-opacity=".667"/><stop offset="1" stop-color="#fff" stop-opacity=".667"/></linearGradient><linearGradient x1="262.138" y1="131.275" x2="258.518" y2="412.163" id="g" xlink:href="#a" gradientUnits="userSpaceOnUse" gradientTransform="matrix(.54976 0 0 .54673 -12.78 -9.945)"/><linearGradient x1="330.06" y1="210.709" x2="78.073" y2="615.286" id="e" xlink:href="#b" gradientUnits="userSpaceOnUse" gradientTransform="matrix(.6955 0 0 .43216 -12.78 -9.945)"/><linearGradient x1="311.324" y1="56.541" x2="347.725" y2="225.296" id="i" xlink:href="#c" gradientUnits="userSpaceOnUse" gradientTransform="matrix(.54666 0 0 .54983 -5.025 -4.13)"/><linearGradient x1="307.684" y1="52.872" x2="304.044" y2="181.273" id="h" xlink:href="#c" gradientUnits="userSpaceOnUse" gradientTransform="matrix(.54666 0 0 .54983 -5.025 -4.13)"/><linearGradient x1="406.306" y1="222.428" x2="356.683" y2="275.927" id="f" xlink:href="#d" gradientUnits="userSpaceOnUse" gradientTransform="matrix(.68607 0 0 .4381 -5.025 -4.13)"/></defs><path d="M216.098 76.926c-.89-5.772 88.874 17.272 83.685 56.622-3.336 40.227-67.345 77.485-183.03 98.11-53.846 7.48-77.722 8.103-77.75 4.186-.505-3.445 172.418-23.07 214.93-98.49 23.074-43.742-36.827-53.9-37.835-60.428z" font-size="12" fill="url(#e)" fill-rule="evenodd"/><path d="M215.29 77.15c-.89-5.77 84.836 21.894 79.647 61.244-20.78 33.443-67.345 77.485-183.03 98.11-53.846 7.48-77.722 8.103-77.75 4.186-.505-3.445 174.84-20.647 214.93-98.49 32.766-10.79-32.79-58.52-33.797-65.05z" font-size="12" fill="url(#f)" fill-rule="evenodd"/><path d="M255.977 236.44c1.423 15.803.917 19.072-3.053 18.828-5.15-.334-4.28-6.993-5.792-11.47-16.143-54.856-52.842-140.204-107.953-140.204-54.8 0-78.422 70.358-98.295 128.433-2.94 9.077-6.527 22.936-24.806 23.257C2.99 255.32-.564 243.098.07 235.188 10.1 102.13 58.146 2.225 129.237.024c60.425-1.87 114.855 104.382 126.74 236.416z" font-size="12" fill="url(#g)" fill-rule="evenodd"/><path d="M255.977 247.06c1.423 15.025.917 18.132-3.053 17.9-5.15-.317-4.28-6.648-5.793-10.903-16.14-52.15-52.84-142.008-107.95-142.008-54.8 0-78.422 75.607-98.295 130.816-2.94 8.63-6.527 21.804-24.806 22.11C2.99 265.007-.564 253.39.07 245.87 10.1 119.38 58.146 8.9 129.237 6.808c60.425-1.778 114.855 114.737 126.74 240.254z" font-size="12" fill="url(#h)" fill-rule="evenodd"/><path d="M255.977 247.06c1.423 15.025.917 18.132-3.053 17.9-5.15-.317-4.28-6.648-5.793-10.903-16.14-52.15-52.84-142.008-107.95-142.008-54.8 0-78.422 75.607-98.295 130.816-2.94 8.63-6.527 21.804-24.806 22.11C2.99 265.007-.564 253.39.07 245.87 10.1 119.38 58.146 8.9 129.237 6.808c60.425-1.778 114.855 114.737 126.74 240.254z" font-size="12" fill="url(#i)" fill-rule="evenodd"/></svg>